# xmcd
#
# Track frame offsets:
# 182
# 17515
# 35070
# 66607
# 91492
# 110165
# 122540
# 152405
# 165932
# 185515
# 205325
# 226267
#
# Disc length: 3262 seconds
#
#
# Revision: 0
# Processed by: cddbd v1.4PL0 Copyright (c) Steve Scherf et al.
# Submitted via: FreeRIP 2.00 
#
DISCID=9b0cbc0c
DTITLE=Phillip Walker and Otis Grand - Big Blues From Texas
DYEAR=1992
DGENRE=Blues
TTITLE0=Dressin' Trashy
TTITLE1=Young Devil
TTITLE2=She's Gone
TTITLE3=Bluesmobile
TTITLE4=Beatrice, Beatrice
TTITLE5=Don't Leave Me Baby
TTITLE6=Play Me Some Blues
TTITLE7=Insomnia
TTITLE8=Goodie Train
TTITLE9=She Torture Me
TTITLE10=You're So Fine
TTITLE11=Big Blues From Texas
EXTD=JSP Records 1992/99
EXTT0=
EXTT1=
EXTT2=
EXTT3=
EXTT4=
EXTT5=
EXTT6=
EXTT7=
EXTT8=
EXTT9=
EXTT10=
EXTT11=
PLAYORDER=
